PathFileType	4	(X/Y/Z)	s04c0403.trc
DataRate	CameraRate	NumFrames	NumMarkers	Units	OrigDataRate	OrigDataStartFrame	OrigNumFrames
200	200	5	50	mm	200	500	2000
Frame#	Time	racr			lacr			c7			jug			rlel			rdr			llel			ldr			s2			lic			ric			lasi			rasi			rpsi			lpsi			rgt			lgt			rth1			rth2			rth3			rth4			rlfc			rmfc			rsh1			rsh2			rsh3			rsh4			rlmal			rmmal			rcal			rtoe			rmt5			lth1			lth2			lth4			lth3			llfc			lmfc			lsh1			lsh2			lsh3			lsh4			llmal			lmmal			lcal			ltoe			lmt5			SBIKE			LBIKE			RBIKE			
		X1	Y1	Z1	X2	Y2	Z2	X3	Y3	Z3	X4	Y4	Z4	X5	Y5	Z5	X6	Y6	Z6	X7	Y7	Z7	X8	Y8	Z8	X9	Y9	Z9	X10	Y10	Z10	X11	Y11	Z11	X12	Y12	Z12	X13	Y13	Z13	X14	Y14	Z14	X15	Y15	Z15	X16	Y16	Z16	X17	Y17	Z17	X18	Y18	Z18	X19	Y19	Z19	X20	Y20	Z20	X21	Y21	Z21	X22	Y22	Z22	X23	Y23	Z23	X24	Y24	Z24	X25	Y25	Z25	X26	Y26	Z26	X27	Y27	Z27	X28	Y28	Z28	X29	Y29	Z29	X30	Y30	Z30	X31	Y31	Z31	X32	Y32	Z32	X33	Y33	Z33	X34	Y34	Z34	X35	Y35	Z35	X36	Y36	Z36	X37	Y37	Z37	X38	Y38	Z38	X39	Y39	Z39	X40	Y40	Z40	X41	Y41	Z41	X42	Y42	Z42	X43	Y43	Z43	X44	Y44	Z44	X45	Y45	Z45	X46	Y46	Z46	X47	Y47	Z47	X48	Y48	Z48	X49	Y49	Z49	X50	Y50	Z50	
500	2.5000	638.197541	1385.092800	-193.163872	663.195698	1338.716708	-404.706721	580.070214	1421.564770	-316.902843	579.128460	1262.193764	-293.170953	478.491027	1135.019360	-18.193385	684.498958	949.254689	-103.644089	556.641237	1147.040028	-623.649043	687.217846	950.403475	-489.637143	-9.918891	1212.157188	-265.426945	137.157771	1182.703144	-424.569833	165.450789	1161.778310	-115.023863	157.582872	1129.133044	-388.979564	180.510742	1105.277854	-165.271414	39.017904	1236.638195	-223.221885	31.809345	1251.368011	-296.458134	92.833647	1117.567411	-88.138752	81.205089	1139.862352	-465.561849	171.829297	973.574981	-81.659511	230.103636	908.886681	-97.448664	251.937144	826.191382	-102.419883	255.576663	925.851532	-119.371553	298.984819	690.832506	-133.786198	266.057990	679.604904	-243.752221	213.628806	598.967574	-105.441961	172.742887	517.722901	-119.682277	98.847061	473.182462	-122.363151	196.381143	501.112744	-145.130590	10.825488	346.796963	-124.762081	30.405095	347.862079	-212.677737	-67.473789	337.223821	-164.680189	211.497153	217.955845	-170.092901	141.357326	220.305105	-115.278641	130.936397	1075.213565	-475.460389	212.604403	1047.582772	-482.779752	232.820701	1075.861790	-469.457421	270.961995	981.391089	-493.670030	393.823023	870.978356	-479.563638	437.299495	853.091222	-373.504932	365.842341	754.046786	-495.731658	354.364159	671.016951	-470.480623	301.390727	600.595180	-462.004146	383.716457	664.183178	-444.597909	238.251743	472.362514	-445.634219	243.595032	475.737961	-353.304456	162.980638	437.859887	-398.353511	461.632787	466.528426	-426.238032	393.391128	418.271109	-482.143840	-184.505317	930.346797	-286.704014	-17.255261	79.542381	-485.777896	-17.525886	79.383140	-84.756553	
501	2.5050	639.641631	1385.115176	-193.009060	665.029750	1338.521926	-404.793066	581.825535	1421.703080	-317.000854	580.738462	1262.386684	-293.167365	478.729688	1135.439055	-18.514049	683.927064	948.935738	-103.843927	557.891419	1147.536789	-624.297774	687.084428	950.687836	-489.686423	-8.289417	1212.881410	-265.866668	138.669757	1182.801639	-425.036076	166.907607	1162.668013	-115.395440	158.882725	1129.306565	-389.306129	181.853248	1105.801625	-165.622581	40.789511	1237.368386	-223.769862	33.544570	1252.127770	-297.245549	94.411035	1118.642772	-88.341276	82.509452	1139.920883	-465.879437	173.436873	974.647845	-82.009200	231.431492	909.636278	-97.764372	253.011120	826.890013	-102.525539	256.931868	926.469183	-119.677420	299.319790	690.987966	-133.513176	266.501022	679.631663	-243.504372	213.587757	599.379078	-105.151008	172.334855	518.261261	-119.335747	98.246659	474.012047	-122.028131	195.952303	501.510298	-144.690008	9.850985	347.962013	-124.510875	29.524411	348.988658	-212.316130	-68.524409	338.354240	-164.356929	210.538636	219.416811	-170.179107	140.497171	221.509871	-115.096955	132.095974	1075.144534	-475.643709	213.713608	1047.300553	-482.823884	234.008350	1075.496955	-469.624898	271.878618	980.877350	-493.674941	394.424351	870.031089	-479.389390	437.968437	852.204281	-373.239478	366.430713	753.038261	-495.533410	355.156961	669.806297	-470.209463	302.176423	599.416849	-461.851077	384.455648	663.102055	-444.459834	238.973116	471.313380	-445.853420	244.525065	474.559160	-353.214948	163.888093	436.576079	-398.239057	462.472904	465.169394	-426.177124	394.297056	416.952918	-482.100168	-184.349371	930.282166	-286.417462	-17.246727	79.548013	-485.753159	-17.522010	79.395330	-84.759491	
502	2.5100	641.140809	1384.925126	-192.793448	666.734163	1338.436921	-404.858878	583.547763	1421.856937	-316.988414	582.301001	1262.564738	-293.117184	479.030994	1135.835352	-18.849712	683.701809	948.783912	-104.195015	559.091589	1148.102670	-624.935394	687.102122	950.758277	-489.806690	-6.688569	1213.587278	-266.255989	140.148719	1182.931876	-425.501951	168.292060	1163.371526	-115.814128	160.250713	1129.491832	-389.720136	183.183311	1106.468841	-166.106999	42.412050	1237.962104	-224.237259	35.197017	1252.635024	-297.796244	96.077388	1119.881196	-88.697470	83.877090	1139.996007	-466.224480	174.994192	975.580894	-82.420238	232.738659	910.436028	-98.045606	254.003889	827.569384	-102.588977	258.203164	927.131639	-120.112549	299.570170	691.116118	-133.250963	266.845354	679.648517	-243.253416	213.422269	599.786022	-104.858659	171.886621	518.878138	-118.915856	97.622201	474.847796	-121.699876	195.496938	501.931762	-144.243953	8.871470	349.018339	-124.133784	28.439272	350.310972	-211.981759	-69.576353	339.478481	-163.960951	209.582660	220.752720	-170.220354	139.632918	222.829774	-114.932468	133.272673	1075.104821	-475.807604	214.815719	1046.909408	-482.933522	235.215191	1075.150048	-469.748856	272.722774	980.436816	-493.682632	394.977835	869.034173	-479.261802	438.542450	850.988314	-373.147373	367.031972	751.912321	-495.351865	355.742515	668.790560	-470.177442	302.879252	598.248401	-461.921991	385.198779	662.015293	-444.350349	239.903858	469.957679	-445.642374	245.473416	473.195922	-353.129025	164.793503	435.327062	-398.198360	463.355066	463.816463	-426.161155	395.232707	415.626830	-482.040389	-184.296050	930.268596	-286.441247	-17.254217	79.540303	-485.763029	-17.527092	79.392784	-84.743091	
503	2.5150	642.580059	1384.749069	-192.679538	668.473184	1338.347296	-405.066451	585.215626	1421.977546	-317.068586	583.846674	1262.829052	-293.052259	479.349969	1136.162182	-19.230796	683.459569	948.608231	-104.652705	560.308478	1148.715884	-625.584234	687.131399	950.735051	-489.665964	-5.084660	1214.330935	-266.738542	141.609320	1183.067055	-425.793608	169.419027	1164.169027	-116.948722	161.352538	1129.624264	-389.909005	184.631667	1107.186783	-166.353943	44.073047	1238.754220	-224.773701	36.845274	1253.440723	-298.509116	97.716183	1121.139231	-89.074659	85.226928	1140.194711	-466.602070	176.368528	976.628965	-82.690292	233.862928	911.182257	-98.232447	254.885369	828.247717	-102.589811	259.414070	927.713086	-120.437102	299.766935	691.267572	-132.971844	267.157210	679.632825	-242.958728	213.190883	600.207255	-104.543527	171.432713	519.415393	-118.480403	96.994780	475.748539	-121.352092	195.026998	502.427593	-143.800404	7.798495	350.131652	-123.845235	27.415058	351.526816	-211.651369	-70.629480	340.544171	-163.530489	208.558758	222.297575	-170.272169	138.764240	224.131913	-114.688782	134.453825	1075.097313	-475.991032	215.892075	1046.616809	-483.058455	236.383118	1074.854866	-469.937795	273.561683	979.914376	-493.703429	395.487905	868.042341	-479.101600	438.964308	849.964531	-373.074364	367.536266	750.784065	-495.223796	356.375578	667.634339	-469.987516	303.640712	597.126521	-461.684513	385.831548	660.888559	-444.227015	240.917006	468.602833	-445.285981	246.534334	471.778464	-352.883703	165.725849	434.073183	-398.095774	464.282283	462.462573	-426.137141	396.088226	414.324463	-482.051460	-184.295383	930.275342	-286.470213	-17.237052	79.530807	-485.756113	-17.525969	79.395098	-84.752454	
504	2.5200	643.954490	1384.699237	-192.556305	670.127965	1338.308980	-405.208521	586.881952	1422.146340	-317.133369	585.373030	1263.111852	-293.019132	479.667511	1136.410121	-19.596402	683.246684	948.458199	-105.131681	561.492782	1149.284520	-626.127313	687.281664	950.504872	-489.908609	-3.534930	1215.133305	-267.248114	143.106667	1183.287625	-426.241539	170.990695	1164.988033	-116.811970	162.651283	1129.909234	-390.244601	186.106386	1107.834737	-166.702349	45.859329	1239.533134	-225.490336	38.588019	1254.172322	-299.329500	99.280710	1122.385927	-89.513464	86.551559	1140.357060	-466.969068	177.791795	977.599305	-82.842141	234.985503	911.942445	-98.407154	255.622415	828.887268	-102.516485	260.433698	928.220935	-120.778698	299.958737	691.421922	-132.686228	267.364857	679.618865	-242.738407	212.924390	600.718399	-104.192171	170.970871	519.955693	-118.014137	96.351212	476.507628	-120.992511	194.469209	502.897261	-143.328445	6.796307	351.097809	-123.445001	26.261387	352.765864	-211.192767	-71.704868	341.559955	-163.123111	207.509168	223.912085	-170.301804	137.958537	225.420837	-114.444029	135.628634	1075.168219	-476.251617	216.967019	1046.384551	-483.171682	237.540373	1074.518897	-470.083204	274.430065	979.436144	-493.691602	396.009390	867.036003	-478.931006	439.438654	848.731818	-372.872130	368.025509	749.684029	-495.058260	356.985158	666.441368	-469.775748	304.321629	595.793263	-461.591000	386.525044	659.699502	-444.099571	241.545721	467.481962	-445.540189	247.447863	470.532689	-352.837979	166.569994	432.753751	-398.051374	465.172815	461.097049	-426.113646	396.979818	412.947079	-482.087529	-184.283581	930.281583	-286.482497	-17.254731	79.531957	-485.758502	-17.529312	79.387368	-84.753134	
